<svg width="32" height="32" viewBox="0 0 32 32" fill="none" xmlns="http://www.w3.org/2000/svg">
<g clip-path="url(#clip0_65_1152)">
<circle cx="16" cy="16" r="16" fill="white"/>
<g clip-path="url(#clip1_65_1152)">
<path d="M23.5833 11.6667H22.695L20.8533 6.59669C20.7009 6.17863 20.4239 5.81739 20.0597 5.56169C19.6955 5.30598 19.2617 5.16812 18.8167 5.16669H17.0833C16.4875 5.16669 16 5.65419 16 6.25002C16 6.84585 16.4875 7.33335 17.0833 7.33335H18.8167L20.3983 11.6667H15.1875L14.7975 10.5834H14.895C15.4908 10.5834 15.9783 10.0959 15.9783 9.50002C15.9783 8.90419 15.4908 8.41669 14.895 8.41669H11.6667C11.0708 8.41669 10.5833 8.90419 10.5833 9.50002C10.5833 10.0959 11.0708 10.5834 11.6667 10.5834H12.4792L14.4508 16H13.725C13.2483 13.5842 11.2225 11.7967 8.6875 11.6775C5.65417 11.5259 3 14.05 3 17.0834C3 20.1167 5.38333 22.5 8.41667 22.5C11.0817 22.5 13.2375 20.6692 13.725 18.1667H18.275C18.7517 20.5825 20.7775 22.37 23.3125 22.4892C26.3458 22.63 29 20.1167 29 17.0725C29 14.05 26.6167 11.6667 23.5833 11.6667ZM9.5 18.1667H11.4717C11.0167 19.4992 9.73833 20.42 8.2 20.3225C6.58583 20.225 5.2425 18.86 5.16667 17.235C5.09083 15.3392 6.5425 13.8334 8.41667 13.8334C9.8575 13.8334 11.0383 14.7325 11.4717 16H9.5C8.90417 16 8.41667 16.4875 8.41667 17.0834C8.41667 17.6792 8.90417 18.1667 9.5 18.1667ZM18.275 16H16.7583L15.9675 13.8334H19.25C18.7733 14.4617 18.4267 15.1875 18.275 16ZM23.4533 20.3334C21.785 20.2684 20.3767 18.8492 20.3333 17.17C20.3117 16.13 20.7558 15.22 21.4708 14.6134L22.1425 16.455C22.3483 17.0184 22.9658 17.3109 23.5292 17.105C24.0925 16.8992 24.385 16.2817 24.1792 15.7184L23.4967 13.8442L23.5075 13.8334C23.9418 13.8185 24.3747 13.8919 24.7799 14.049C25.1851 14.2061 25.5543 14.4437 25.8651 14.7475C26.1759 15.0512 26.422 15.4148 26.5884 15.8163C26.7548 16.2177 26.8381 16.6488 26.8333 17.0834C26.8333 18.9467 25.3383 20.3984 23.4533 20.3334ZM14.9167 25.75H10.5833L17.0833 29V26.8334H21.4167L14.9167 23.5834V25.75Z" fill="url(#paint0_linear_65_1152)"/>
</g>
</g>
<defs>
<linearGradient id="paint0_linear_65_1152" x1="16.0599" y1="5.16669" x2="16.0599" y2="29" gradientUnits="userSpaceOnUse">
<stop stop-color="#FFB60D"/>
<stop offset="0.395203" stop-color="#E59317"/>
</linearGradient>
<clipPath id="clip0_65_1152">
<rect width="32" height="32" fill="white"/>
</clipPath>
<clipPath id="clip1_65_1152">
<rect width="26" height="26" fill="white" transform="translate(3 3)"/>
</clipPath>
</defs>
</svg>
