<svg width="208" height="41" viewBox="0 0 208 41" fill="none" xmlns="http://www.w3.org/2000/svg">
<g clip-path="url(#clip0_18_58)">
<mask id="mask0_18_58" style="mask-type:luminance" maskUnits="userSpaceOnUse" x="0" y="0" width="208" height="41">
<path d="M0 0H208V41H0V0Z" fill="white"/>
</mask>
<g mask="url(#mask0_18_58)">
<path fill-rule="evenodd" clip-rule="evenodd" d="M13.9352 36.1229C13.8024 36.1217 13.6715 36.09 13.5528 36.0304C13.4341 35.9708 13.3306 35.8847 13.2502 35.7789C13.0221 35.4756 12.868 35.1233 12.8002 34.7499C12.6918 34.2746 12.6084 33.7939 12.5502 33.3099C12.4811 32.6866 12.4457 32.06 12.4442 31.4329C12.4237 30.0549 12.4283 28.6767 12.4582 27.2989C12.4762 26.4529 12.4842 25.7929 12.4842 25.3169V9.56489C12.4842 8.78889 12.4892 8.19889 12.4982 7.79389C12.5072 7.38889 12.5382 6.93089 12.5892 6.41989C12.6192 6.03989 12.6852 5.66389 12.7882 5.29689C12.8882 5.01389 13.0212 4.74389 13.1832 4.49089C13.3332 4.22589 13.5512 4.00689 13.8162 3.85689C14.1242 3.70289 14.4412 3.56689 14.7652 3.44689C15.1827 3.29171 15.6155 3.18109 16.0562 3.11689C16.6305 3.03305 17.2067 2.96237 17.7842 2.90489V1.44989L17.3342 0.999894H1.41223L0.990234 1.44989V2.69189C3.66223 2.85089 5.15623 3.60889 5.47223 4.96489C5.65623 6.10989 5.74423 7.26789 5.73623 8.42689V32.5539C5.78044 33.8071 5.72728 35.0619 5.57723 36.3069C5.50423 36.5009 5.39723 36.6789 5.26123 36.8349C5.0576 37.0784 4.84235 37.3121 4.61623 37.5349C4.43708 37.708 4.26558 37.8888 4.10223 38.0769V39.0019C17.6892 39.0019 26.0992 39.0899 29.3322 39.2669L30.4672 35.4349L29.7552 34.9319C24.5052 35.5929 19.2252 35.9899 13.9362 36.1219L13.9352 36.1229ZM39.1912 25.0769C39.1397 25.0913 39.0867 25.1001 39.0332 25.1029C38.7702 25.1029 38.6382 25.0069 38.6382 24.8129C38.6392 23.9369 38.7052 23.0619 38.8362 22.1959C38.9842 21.2519 39.2312 20.3259 39.5742 19.4349C39.9048 18.5315 40.358 17.6778 40.9212 16.8979C41.5182 16.1045 42.2933 15.4626 43.1841 15.0242C44.075 14.5857 45.0564 14.363 46.0492 14.3739C46.7657 14.3341 47.4802 14.4814 48.1225 14.8012C48.7649 15.121 49.3131 15.6023 49.7132 16.1979C50.5444 17.4297 50.9772 18.8871 50.9532 20.3729C50.9497 20.6453 50.8632 20.9101 50.7052 21.132C50.5473 21.3539 50.3254 21.5224 50.0692 21.6149C48.6256 22.1967 47.1514 22.6997 45.6532 23.1219C43.5462 23.7419 41.446 24.3853 39.3532 25.0519C39.2985 25.0542 39.2441 25.0626 39.1912 25.0769ZM54.8512 33.3219C51.6862 35.2419 48.9532 36.2019 46.6532 36.2019C45.0951 36.2357 43.5651 35.7831 42.2762 34.9069C41.0772 34.1023 40.1238 32.9821 39.5212 31.6699C38.9279 30.354 38.6267 28.9253 38.6382 27.4819C50.1332 23.9059 55.9332 22.1169 56.0382 22.1169C56.4947 22.0235 56.9026 21.7696 57.188 21.4011C57.4733 21.0327 57.617 20.5742 57.5932 20.1089C57.6245 18.8116 57.3204 17.5282 56.7102 16.3829C56.1531 15.3585 55.3285 14.5045 54.3242 13.9119C53.3111 13.3172 52.2131 12.8805 51.0682 12.6169C49.8264 12.3357 48.5564 12.1982 47.2832 12.2069C44.9992 12.1715 42.7342 12.6267 40.6412 13.5419C38.7958 14.339 37.1654 15.5617 35.8832 17.1099C34.6744 18.6069 33.7416 20.3071 33.1282 22.1309C32.4922 24.0075 32.1712 25.9764 32.1782 27.9579C32.1782 32.0279 33.2782 35.0759 35.4742 37.1019C37.4602 38.9519 40.2642 39.8759 43.8842 39.8759C45.9598 39.8546 48.0029 39.3575 49.8562 38.4229C52.0881 37.3113 54.2261 36.0204 56.2492 34.5629L55.6722 33.5349L54.8512 33.3219ZM90.3602 5.45689C89.6538 3.61168 88.2665 2.10772 86.4842 1.25489C84.2764 0.326042 81.8916 -0.106812 79.4982 -0.0131064C77.7516 -0.0231252 76.0109 0.189931 74.3182 0.620894C72.7437 1.0218 71.2406 1.66372 69.8622 2.52389C68.5121 3.37504 67.4079 4.56436 66.6592 5.97389C65.8465 7.51566 65.4381 9.23837 65.4722 10.9809C65.4713 12.2282 65.7744 13.457 66.3552 14.5609C66.91 15.6534 67.6608 16.6347 68.5702 17.4559C69.5482 18.3185 70.5876 19.1089 71.6802 19.8209C72.7769 20.5516 73.9126 21.2219 75.0822 21.8289C76.1818 22.3941 77.2633 22.9937 78.3252 23.6269C79.2052 24.1249 80.0312 24.7139 80.7902 25.3839C82.7402 27.1989 83.7162 28.9249 83.7162 30.5639C83.7127 31.4345 83.5307 32.2951 83.1815 33.0927C82.8324 33.8902 82.3235 34.6077 81.6862 35.2009C81.0537 35.852 80.2949 36.3672 79.4563 36.7149C78.6177 37.0626 77.717 37.2354 76.8092 37.2229C75.7479 37.2534 74.6936 37.0406 73.7271 36.6009C72.7606 36.1611 71.9076 35.5061 71.2332 34.6859C69.8339 33.0835 69.0698 31.0242 69.0852 28.8969L68.0582 28.5269L62.8122 34.4199C64.0111 36.1551 65.6367 37.5522 67.5322 38.4769C69.4596 39.4225 71.5805 39.9069 73.7272 39.8919C75.6861 39.882 77.6323 39.5787 79.5012 38.9919C81.3807 38.4261 83.173 37.6033 84.8272 36.5469C86.3999 35.5426 87.7354 34.2085 88.7412 32.6369C89.7271 31.1425 90.2541 29.3922 90.2572 27.6019C90.2651 26.6411 90.0956 25.6871 89.7572 24.7879C89.4442 23.9528 89.0088 23.1689 88.4652 22.4619C87.8254 21.677 87.085 20.9796 86.2632 20.3879C85.3653 19.7107 84.4276 19.088 83.4552 18.5229C82.2914 17.8597 81.1138 17.2209 79.9232 16.6069C79.0931 16.2045 78.2754 15.777 77.4712 15.3249C76.7107 14.8804 75.9707 14.402 75.2532 13.8909C74.5177 13.3867 73.8455 12.7958 73.2512 12.1309C72.729 11.5104 72.3023 10.8154 71.9852 10.0689C71.6333 9.26505 71.4538 8.39638 71.4582 7.51889C71.442 6.80124 71.57 6.08763 71.8345 5.42031C72.099 4.75299 72.4947 4.14553 72.9982 3.63389C73.5304 3.10204 74.1672 2.68653 74.8683 2.41369C75.5694 2.14085 76.3196 2.01662 77.0712 2.04889C78.0023 2.00868 78.9307 2.17494 79.79 2.53576C80.6492 2.89657 81.418 3.44301 82.0412 4.13589C83.29 5.5492 84.0765 7.31068 84.2952 9.18389L85.2182 9.47389L90.3602 5.45689ZM115.998 15.5919C115.527 14.7671 114.845 14.0829 114.021 13.6099C113.206 13.1441 112.327 12.8014 111.411 12.5929C110.429 12.3751 109.425 12.2687 108.419 12.2759C106.5 12.2489 104.592 12.5759 102.79 13.2409C101.245 13.8022 99.828 14.6695 98.6252 15.7909C97.5075 16.8738 96.5805 18.1375 95.8832 19.5289C95.1666 20.9286 94.639 22.4173 94.3142 23.9559C93.9939 25.5121 93.8351 27.0971 93.8402 28.6859C93.8342 30.0359 94.0252 31.3799 94.4062 32.6739C94.7762 33.9269 95.3512 35.1099 96.1062 36.1759C96.9024 37.2754 97.9702 38.1496 99.2052 38.7129C100.623 39.3609 102.168 39.6819 103.726 39.6509C108.665 39.6509 113.305 37.4749 117.646 33.1239L117.119 32.3569L116.46 32.1989C113.244 34.6829 110.273 35.9249 107.549 35.9249C106.529 35.9413 105.521 35.71 104.61 35.2509C103.785 34.841 103.066 34.2442 102.511 33.5079C101.961 32.751 101.513 31.9245 101.179 31.0499C100.833 30.1766 100.581 29.2687 100.428 28.3419C100.288 27.4679 100.218 26.5839 100.217 25.6989C100.223 24.5739 100.32 23.4519 100.507 22.3429C100.714 21.1079 101.023 19.8929 101.43 18.7089C101.8 17.5518 102.442 16.5003 103.302 15.6429C103.681 15.2592 104.133 14.9551 104.631 14.7487C105.129 14.5423 105.663 14.4376 106.202 14.4409C106.923 14.4012 107.64 14.5632 108.273 14.9088C108.906 15.2543 109.431 15.7697 109.787 16.3969C110.602 17.8656 111.003 19.5281 110.947 21.2069L111.87 21.5769L116.853 18.6179C116.812 17.5557 116.519 16.5185 115.998 15.5919ZM125.661 23.4539C125.795 22.4159 126.029 21.3939 126.36 20.4019C126.663 19.4369 127.093 18.5179 127.638 17.6669C128.162 16.8786 128.862 16.2227 129.682 15.7509C130.567 15.2401 131.574 14.9798 132.595 14.9979C133.703 14.9697 134.796 15.2583 135.745 15.8299C136.627 16.3792 137.336 17.1673 137.788 18.1029C138.265 19.0699 138.61 20.0959 138.815 21.1549C139.032 22.2949 139.139 23.4549 139.132 24.6169C139.132 25.6739 139.123 26.5549 139.105 27.2589C139.077 28.107 139.016 28.9536 138.921 29.7969C138.843 30.6269 138.698 31.4479 138.486 32.2539C138.279 32.9639 138.01 33.6539 137.682 34.3159C137.38 34.9712 136.945 35.5561 136.403 36.0329C135.844 36.4894 135.211 36.8469 134.531 37.0899C133.707 37.3848 132.836 37.5281 131.961 37.5129C130.997 37.5247 130.053 37.2383 129.258 36.6929C128.483 36.1734 127.838 35.4818 127.374 34.6719C126.887 33.8003 126.506 32.8733 126.24 31.9109C125.96 30.9638 125.757 29.9957 125.633 29.0159C125.531 28.1697 125.478 27.3182 125.475 26.4659C125.475 25.459 125.537 24.4531 125.661 23.4539ZM122.392 37.1169C124.307 38.8609 127.348 39.7329 131.514 39.7329C133.054 39.7429 134.59 39.5659 136.088 39.2039C137.497 38.8536 138.84 38.2782 140.066 37.4999C141.298 36.7226 142.376 35.7233 143.243 34.5529C144.192 33.2258 144.898 31.7402 145.326 30.1659C145.858 28.2567 146.116 26.2816 146.091 24.2999C146.142 22.7043 145.846 21.1167 145.222 19.6473C144.598 18.1778 143.662 16.8615 142.479 15.7899C140.281 13.8179 137.091 12.8309 132.909 12.8309C128.726 12.8309 125.281 14.1259 122.574 16.7159C121.245 17.972 120.197 19.4946 119.497 21.1842C118.797 22.8737 118.462 24.692 118.514 26.5199C118.514 31.2419 119.805 34.7739 122.389 37.1169H122.392ZM163.65 16.1869C165.056 16.1869 166.058 16.4689 166.656 17.0329C167.213 17.7129 167.565 18.5389 167.67 19.4129C167.891 20.4429 168.028 21.4909 168.079 22.5439C168.114 23.4689 168.132 24.6629 168.132 26.1249C168.131 28.0233 168.118 29.9217 168.093 31.8199C168.084 32.3919 168.088 33.0659 168.105 33.8419C168.11 34.4199 168.145 34.9979 168.211 35.5719C168.264 35.9519 168.334 36.3659 168.422 36.8139C168.483 37.1899 168.608 37.5509 168.791 37.8839C168.949 38.1489 169.143 38.3899 169.369 38.5989C170.16 39.3166 171.201 39.6957 172.268 39.6549C173.587 39.6549 175.098 38.9849 176.803 37.6469C178.226 36.4635 179.581 35.2015 180.863 33.8669L180.257 32.9669H179.624C178.593 33.7941 177.332 34.2833 176.013 34.3679C175.734 34.3839 175.454 34.343 175.191 34.2476C174.928 34.1522 174.687 34.0043 174.483 33.8129C174.301 33.669 174.145 33.4952 174.021 33.2989C173.876 32.9532 173.783 32.5879 173.745 32.2149C173.644 31.4573 173.6 30.6931 173.613 29.9289C173.613 29.3479 173.644 28.4089 173.705 27.1149C173.754 26.1949 173.785 25.2741 173.798 24.3529V22.7669C173.815 21.0579 173.811 19.8739 173.785 19.2119C173.732 18.3087 173.631 17.4091 173.481 16.5169C173.416 15.6757 173.134 14.8656 172.664 14.1649C172.2 13.6614 171.645 13.2494 171.029 12.9499C170.192 12.545 169.269 12.3497 168.34 12.3809C165.247 12.3809 161.661 13.6499 157.584 16.1869L156.951 15.9489C156.917 14.9772 156.601 14.0363 156.042 13.2409C155.523 12.5609 154.631 12.2229 153.366 12.2229C152.608 12.2324 151.856 12.3617 151.138 12.6059C150.303 12.8859 149.506 13.2679 148.764 13.7419C147.964 14.2449 147.27 14.7119 146.681 15.1429C146.092 15.5739 145.411 16.0979 144.638 16.7149L145.613 18.0099C145.793 17.8939 145.973 17.7796 146.154 17.6669C146.461 17.4729 146.729 17.3149 146.958 17.1909C147.186 17.0679 147.459 16.9229 147.775 16.7549C148.058 16.6009 148.354 16.4719 148.659 16.3689C148.892 16.2889 149.136 16.2439 149.383 16.2369C149.688 16.2299 149.989 16.3069 150.253 16.4619C150.521 16.6389 150.723 16.8989 150.831 17.2019C150.963 17.5219 151.077 17.8469 151.173 18.1789C151.281 18.6259 151.343 19.0819 151.358 19.5409C151.394 20.1409 151.415 20.6249 151.422 20.9939C151.43 21.3629 151.434 21.9179 151.435 22.6589V23.1089C151.435 24.8349 151.303 30.1199 151.04 38.9639L151.699 39.3339L157.631 37.6159C157.455 36.8589 157.323 34.4719 157.235 30.4559C157.148 26.5275 157.105 22.5983 157.107 18.6689C160.165 17.0129 162.344 16.1849 163.645 16.1849L163.65 16.1869ZM189.223 25.1969C189.172 25.2122 189.119 25.2216 189.065 25.2249C188.802 25.2249 188.67 25.1279 188.669 24.9349C188.67 24.0579 188.736 23.1839 188.868 22.3179C189.016 21.3739 189.263 20.4479 189.605 19.5559C189.936 18.6529 190.388 17.7989 190.95 17.0189C191.547 16.2253 192.322 15.5832 193.213 15.1447C194.104 14.7063 195.085 14.4836 196.078 14.4949C196.795 14.455 197.509 14.6022 198.152 14.922C198.794 15.2418 199.342 15.7232 199.742 16.3189C200.574 17.5506 201.006 19.0081 200.981 20.4939C200.977 20.766 200.891 21.0306 200.733 21.2524C200.575 21.4742 200.354 21.6428 200.098 21.7359C198.655 22.3174 197.181 22.8204 195.683 23.2429C193.576 23.8628 191.475 24.5062 189.382 25.1729C189.329 25.1758 189.276 25.1842 189.224 25.1979L189.223 25.1969ZM204.883 33.4429C201.718 35.3639 198.985 36.3239 196.684 36.3229C195.126 36.3565 193.596 35.9042 192.307 35.0289C191.109 34.224 190.156 33.1039 189.553 31.7919C188.959 30.4755 188.658 29.046 188.669 27.6019C200.164 24.0269 205.964 22.2389 206.07 22.2389C206.527 22.1451 206.935 21.8909 207.22 21.5224C207.505 21.1538 207.649 20.6953 207.625 20.2299C207.656 18.9326 207.352 17.6492 206.742 16.5039C206.185 15.4795 205.36 14.6256 204.356 14.0329C203.343 13.4384 202.245 13.0018 201.1 12.7379C199.858 12.4566 198.588 12.3191 197.314 12.3279C195.031 12.2927 192.767 12.7479 190.674 13.6629C188.829 14.4599 187.198 15.6826 185.916 17.2309C184.707 18.7277 183.774 20.4279 183.161 22.2519C182.525 24.1284 182.204 26.0975 182.212 28.0789C182.212 32.1489 183.31 35.1959 185.507 37.2229C187.493 39.0729 190.296 39.9969 193.917 39.9969C195.993 39.9755 198.036 39.4785 199.889 38.5439C202.121 37.4321 204.259 36.1415 206.282 34.6849L205.705 33.6559L204.883 33.4429Z" fill="#9C9C9C"/>
</g>
</g>
<defs>
<clipPath id="clip0_18_58">
<rect width="208" height="41" fill="white"/>
</clipPath>
</defs>
</svg>
