<svg width="32" height="32" viewBox="0 0 32 32" fill="none" xmlns="http://www.w3.org/2000/svg">
<path d="M25.3333 9.33334H24.24L21.9733 3.09334C21.7857 2.57881 21.4448 2.13421 20.9965 1.8195C20.5483 1.50479 20.0143 1.33511 19.4667 1.33334H17.3333C16.6 1.33334 16 1.93334 16 2.66668C16 3.40001 16.6 4.00001 17.3333 4.00001H19.4667L21.4133 9.33334H15L14.52 8.00001H14.64C15.3733 8.00001 15.9733 7.40001 15.9733 6.66668C15.9733 5.93334 15.3733 5.33334 14.64 5.33334H10.6667C9.93333 5.33334 9.33333 5.93334 9.33333 6.66668C9.33333 7.40001 9.93333 8.00001 10.6667 8.00001H11.6667L14.0933 14.6667H13.2C12.6133 11.6933 10.12 9.49334 7 9.34668C3.26667 9.16001 0 12.2667 0 16C0 19.7333 2.93333 22.6667 6.66667 22.6667C9.94667 22.6667 12.6 20.4133 13.2 17.3333H18.8C19.3867 20.3067 21.88 22.5067 25 22.6533C28.7333 22.8267 32 19.7333 32 15.9867C32 12.2667 29.0667 9.33334 25.3333 9.33334ZM8 17.3333H10.4267C9.86667 18.9733 8.29333 20.1067 6.4 19.9867C4.41333 19.8667 2.76 18.1867 2.66667 16.1867C2.57333 13.8533 4.36 12 6.66667 12C8.44 12 9.89333 13.1067 10.4267 14.6667H8C7.26667 14.6667 6.66667 15.2667 6.66667 16C6.66667 16.7333 7.26667 17.3333 8 17.3333ZM18.8 14.6667H16.9333L15.96 12H20C19.4133 12.7733 18.9867 13.6667 18.8 14.6667ZM25.1733 20C23.12 19.92 21.3867 18.1733 21.3333 16.1067C21.3067 14.8267 21.8533 13.7067 22.7333 12.96L23.56 15.2267C23.8133 15.92 24.5733 16.28 25.2667 16.0267C25.96 15.7733 26.32 15.0133 26.0667 14.32L25.2267 12.0133L25.24 12C25.7746 11.9818 26.3073 12.0721 26.806 12.2654C27.3047 12.4588 27.7591 12.7512 28.1416 13.1251C28.5242 13.4989 28.827 13.9464 29.0319 14.4405C29.2367 14.9347 29.3392 15.4652 29.3333 16C29.3333 18.2933 27.4933 20.08 25.1733 20ZM14.6667 26.6667H9.33333L17.3333 30.6667V28H22.6667L14.6667 24V26.6667Z" fill="url(#paint0_linear_33_238)"/>
<defs>
<linearGradient id="paint0_linear_33_238" x1="16.0737" y1="1.33334" x2="16.0737" y2="30.6667" gradientUnits="userSpaceOnUse">
<stop stop-color="#FFBF00"/>
<stop offset="1" stop-color="#F2A60C"/>
</linearGradient>
</defs>
</svg>
