<svg width="32" height="32" viewBox="0 0 32 32" fill="none" xmlns="http://www.w3.org/2000/svg">
<path d="M15.9997 10.6667C13.053 10.6667 10.6663 13.0533 10.6663 16C10.6663 18.9467 13.053 21.3333 15.9997 21.3333C18.9463 21.3333 21.333 18.9467 21.333 16C21.333 13.0533 18.9463 10.6667 15.9997 10.6667ZM27.9197 14.6667C27.6177 11.9628 26.4052 9.44206 24.4814 7.51827C22.5576 5.59448 20.0368 4.38203 17.333 4.08001V2.66668C17.333 1.93334 16.733 1.33334 15.9997 1.33334C15.2663 1.33334 14.6663 1.93334 14.6663 2.66668V4.08001C11.9625 4.38203 9.44172 5.59448 7.51793 7.51827C5.59414 9.44206 4.38169 11.9628 4.07967 14.6667H2.66634C1.93301 14.6667 1.33301 15.2667 1.33301 16C1.33301 16.7333 1.93301 17.3333 2.66634 17.3333H4.07967C4.38169 20.0372 5.59414 22.558 7.51793 24.4818C9.44172 26.4055 11.9625 27.618 14.6663 27.92V29.3333C14.6663 30.0667 15.2663 30.6667 15.9997 30.6667C16.733 30.6667 17.333 30.0667 17.333 29.3333V27.92C20.0368 27.618 22.5576 26.4055 24.4814 24.4818C26.4052 22.558 27.6177 20.0372 27.9197 17.3333H29.333C30.0663 17.3333 30.6663 16.7333 30.6663 16C30.6663 15.2667 30.0663 14.6667 29.333 14.6667H27.9197ZM15.9997 25.3333C10.8397 25.3333 6.66634 21.16 6.66634 16C6.66634 10.84 10.8397 6.66668 15.9997 6.66668C21.1597 6.66668 25.333 10.84 25.333 16C25.333 21.16 21.1597 25.3333 15.9997 25.3333Z" fill="url(#paint0_linear_33_236)"/>
<defs>
<linearGradient id="paint0_linear_33_236" x1="16.0673" y1="1.33334" x2="16.0673" y2="30.6667" gradientUnits="userSpaceOnUse">
<stop stop-color="#FFBF00"/>
<stop offset="1" stop-color="#F2A60C"/>
</linearGradient>
</defs>
</svg>
